# xmcd
# Copyright (C) 1995-1998 Ti Kan
#
# Track frame offsets:
#       150
#       16794
#       36241
#       52832
#       67831
#       86048
#       102329
#       117641
#       131401
#       148193
#       164440
#       180311
#       201117
#       219646
#       238332
#       255897
#       271340
#       290501
#       310207
#
# Disc length: 4433 seconds
#
# Revision: 18
# Processed by: cddbd v1.5.2PL0 Copyright (c) Steve Scherf et al.
# Submitted via: CD-Transfer v1.0
#
DISCID=12114f13
DTITLE=Spandau Ballet - 
DYEAR=1985
DGENRE=
TTITLE0=Too Shy
TTITLE1=Such A Shame
TTITLE2=She Blinded Me With Science
TTITLE3=My Soul Unwraps Tonight
TTITLE4=Road To Nowhere
TTITLE5=Center Fold
TTITLE6=Kids In America
TTITLE7=Living In A Box
TTITLE8=The Power Of Love
TTITLE9=I'm Gonna Be (500miles)
TTITLE10=Kayleigh
TTITLE11=A Good Heart
TTITLE12=Straight Up
TTITLE13=Showing Out
TTITLE14=Love Changes
TTITLE15=Shattered Dreams
TTITLE16=Sunshine Reggae
TTITLE17=Do You Really Want To Hurt Me
TTITLE18=True
EXTD=
EXTT0=
EXTT1=
EXTT2=
EXTT3=
EXTT4=
EXTT5=
EXTT6=
EXTT7=
EXTT8=
EXTT9=
EXTT10=
EXTT11=
EXTT12=
EXTT13=
EXTT14=
EXTT15=
EXTT16=
EXTT17=
EXTT18=
PLAYORDER=
